:SAMPLES-PER-SECOND 30
:FULLY-SPECIFIED
:DEGREES
335
root  11.9137 27.2456 24.5448 -129.681 -57.3848 155.21
RightUpLeg  -45.1655 -8.47669 -6.78751
RightLeg  95.7986 0.195125 -1.89677
RightFoot  -13.2563 0.272637 2.7236
RightToes  -49.6498 -0.299786 -0.3629
Spine  25.3256 -0.0980187 -0.666448
Spine1  39.0877 4.89318 -1.16331
HEad  8.53863 -13.7839 3.63134
LeftShoulder1  0 -2.42657e-020 -4.95415e-022
LeftArm  -19.0406 -51.238 -102.729
LeftForeArm  17.1981 -35.9285 -7.33762
LeftHand  -0.100108 -5.62585 1.66933
RightShoulder  0 2.42657e-020 1.07489e-018
RightArm  -19.9777 60.3453 73.2084
RightForeArm  73.6292 12.9662 2.24597
RightHand  -3.53742 27.4994 -14.0182
LeftUpLeg  -78.2512 6.96011 -22.1243
LeftLeg  56.802 0.841455 1.11197
LeftFoot  -1.46304 0.0277059 2.16965
LeftToes  -26.3175 8.63562e-007 1.17448e-007
336
root  10.7302 27.2508 22.7627 -129.792 -61.4414 157.066
RightUpLeg  -57.1796 -10.5743 -2.19855
RightLeg  99.0026 0.343505 -2.26048
RightFoot  -18.2085 0.377368 2.7322
RightToes  -47.8634 -0.284146 -0.355099
Spine  26.5277 1.19362 0.184572
Spine1  40.6439 6.57289 0.638206
HEad  8.49815 -15.2195 6.59426
LeftShoulder1  0 -2.42657e-020 -4.95415e-022
LeftArm  -13.9647 -55.4119 -102.788
LeftForeArm  16.2494 -31.9937 -6.31803
LeftHand  0.000354422 -5.23214 -0.378212
RightShoulder  0 2.42657e-020 1.07489e-018
RightArm  -56.5924 70.0016 61.7933
RightForeArm  87.5836 0.753942 0.0244737
RightHand  -0.186432 20.8724 -0.642338
LeftUpLeg  -78.8538 7.25033 -17.83
LeftLeg  60.7002 -0.047458 -0.0839392
LeftFoot  -2.30189 0.0392741 1.95466
LeftToes  -25.4033 8.63562e-007 1.17448e-007
337
root  9.39803 27.1675 20.8997 -130.657 -65.4646 158.241
RightUpLeg  -67.4877 -13.8465 0.946069
RightLeg  98.554 -0.0898197 2.60079
RightFoot  -19.8952 0.0906966 0.894707
RightToes  -51.577 -0.316922 -0.370764
Spine  27.3636 1.56797 0.531808
Spine1  41.7801 6.24606 1.05842
HEad  9.27915 -13.879 8.36052
LeftShoulder1  0 -2.42657e-020 -4.95415e-022
LeftArm  -14.4423 -57.4051 -97.6572
LeftForeArm  21.2135 -30.6751 -5.99805
LeftHand  0.0376418 -5.88002 -1.10418
RightShoulder  0 2.42657e-020 1.07489e-018
RightArm  -47.1263 70.7265 56.5773
RightForeArm  65.1184 2.87123 0.458216
RightHand  0.967401 14.1442 8.15959
LeftUpLeg  -78.0469 8.04204 -13.6911
LeftLeg  64.6898 -1.08923 -1.97738
LeftFoot  -4.89649 0.0652756 1.5266
LeftToes  -24.3559 8.63562e-007 1.17448e-007
338
root  7.97024 27.0137 18.9167 -131.998 -69.5172 159.117
RightUpLeg  -75.7017 -17.0811 2.78938
RightLeg  94.6673 0.0194202 5.98491
RightFoot  -19.4766 -0.143592 -0.459134
RightToes  -55.3909 -0.351566 -0.384608
Spine  27.8585 1.64931 0.573543
Spine1  42.6255 5.38417 0.728113
HEad  10.1951 -12.0141 10.3488
LeftShoulder1  0 -2.42657e-020 -4.95415e-022
LeftArm  -16.859 -56.9647 -91.4936
LeftForeArm  25.2202 -32.2101 -6.37256
LeftHand  -0.057055 -6.56549 0.625405
RightShoulder  0 2.42657e-020 1.07489e-018
RightArm  -54.7257 71.5565 56.4354
RightForeArm  67.556 3.07916 0.488773
RightHand  0.713405 15.0143 5.78215
LeftUpLeg  -76.2951 9.28965 -9.4601
LeftLeg  68.3217 -1.82835 -3.86563
LeftFoot  -7.76386 0.0731036 1.07729
LeftToes  -28.0482 8.63562e-007 1.17448e-007
339
root  6.57458 26.8247 16.6565 -137.827 -74.18 164.79
RightUpLeg  -81.1321 -18.3404 3.87497
RightLeg  87.0185 0.788047 5.82021
RightFoot  -18.4009 -0.152329 -0.562917
RightToes  -55.019 -0.348149 -0.38336
Spine  27.8896 2.01235 1.04144
Spine1  43.1415 5.24057 0.687401
HEad  10.3277 -10.1039 12.6406
LeftShoulder1  0 -2.42657e-020 -4.95415e-022
LeftArm  -18.9742 -55.4884 -86.8771
LeftForeArm  25.1724 -35.5097 -7.22521
LeftHand  -0.0154498 -6.76071 -0.108503
RightShoulder  0 2.42657e-020 1.07489e-018
RightArm  -64.9834 71.9251 56.0011
RightForeArm  75.7527 3.27621 0.50169
RightHand  0.563158 20.0679 3.55313
LeftUpLeg  -74.6792 10.4935 -2.53625
LeftLeg  71.7897 -2.27878 -5.66819
LeftFoot  -10.3003 0.0503766 0.558919
LeftToes  -32.7756 8.63562e-007 1.17448e-007
